<svg xmlns="http://www.w3.org/2000/svg" width="450" height="170" viewBox="0 0 450 170" role="img" aria-label="Adblocker  ·  GitHub">
<style>
  .t { font: 600 15px -apple-system,BlinkMacSystemFont,'Segoe UI',Ubuntu,'Helvetica Neue',Helvetica,Arial,sans-serif; fill: #E8799A; }
  .n { font: 700 22px -apple-system,BlinkMacSystemFont,'Segoe UI',Ubuntu,'Helvetica Neue',Helvetica,Arial,sans-serif; fill: #B07CC6; }
  .l { font: 400 11px -apple-system,BlinkMacSystemFont,'Segoe UI',Ubuntu,'Helvetica Neue',Helvetica,Arial,sans-serif; fill: #A796B4; letter-spacing:.4px; }
  .b { font: 400 12.5px -apple-system,BlinkMacSystemFont,'Segoe UI',Ubuntu,'Helvetica Neue',Helvetica,Arial,sans-serif; fill: #6D6178; }
  .s { font: 400 11px -apple-system,BlinkMacSystemFont,'Segoe UI',Ubuntu,'Helvetica Neue',Helvetica,Arial,sans-serif; fill: #A796B4; }
</style>
<rect x="0.5" y="0.5" width="449" height="169" rx="14"
      fill="#FFF5F7" stroke="#FFD3DF"/>
<text x="22" y="32" class="t">Adblocker  ·  GitHub</text>
<path transform="translate(410,20) scale(1.5)" fill="#FFC9D6" d="M5 9.2C2.2 7.3 0 5.7 0 3.6 0 1.9 1.3.7 2.9.7c1 0 1.7.5 2.1 1.1C5.4 1.2 6.1.7 7.1.7 8.7.7 10 1.9 10 3.6c0 2.1-2.2 3.7-5 5.6z"/>
<text x="24" y="80" class="n">11</text>
<text x="24" y="97" class="l">REPOSITORIES</text>
<text x="169" y="80" class="n">2</text>
<text x="169" y="97" class="l">SPRACHEN</text>
<text x="314" y="80" class="n">0</text>
<text x="314" y="97" class="l">STERNE</text>
<text x="24" y="138" class="n">1</text>
<text x="24" y="155" class="l">FOLLOWER</text>
<text x="169" y="138" class="n">2021</text>
<text x="169" y="155" class="l">DABEI SEIT</text>
<text x="314" y="138" class="n">09/2026</text>
<text x="314" y="155" class="l">LETZTER PUSH</text>
</svg>
